<mxfile host="app.diagrams.net" agent="Mozilla/5.0 (X11; Linux x86_64) AppleWebKit/537.36 (KHTML, like Gecko) Chrome/133.0.0.0 Safari/537.36" version="27.2.0">
  <diagram name="Page-1" id="aN6wOLhSQTLMqTL1PrTc">
    <mxGraphModel dx="935" dy="996" grid="1" gridSize="10" guides="1" tooltips="1" connect="1" arrows="1" fold="1" page="1" pageScale="1" pageWidth="850" pageHeight="1100" math="0" shadow="0">
      <root>
        <mxCell id="0" />
        <mxCell id="1" parent="0" />
        <mxCell id="Q9C73i7ThPRaQxiTbjB--35" style="edgeStyle=orthogonalEdgeStyle;rounded=0;orthogonalLoop=1;jettySize=auto;html=1;entryX=0.5;entryY=0;entryDx=0;entryDy=0;" edge="1" parent="1" source="Q9C73i7ThPRaQxiTbjB--24" target="Q9C73i7ThPRaQxiTbjB--25">
          <mxGeometry relative="1" as="geometry" />
        </mxCell>
        <mxCell id="Q9C73i7ThPRaQxiTbjB--24" value="&lt;font style=&quot;font-size: 18px; color: light-dark(rgb(26, 64, 255), rgb(0, 0, 0));&quot;&gt;&lt;b&gt;Start&lt;/b&gt;&lt;/font&gt;" style="rounded=1;whiteSpace=wrap;html=1;labelBackgroundColor=none;fillColor=#BC6C25;strokeColor=#DDA15E;fontColor=#FEFAE0;" vertex="1" parent="1">
          <mxGeometry x="310" y="200" width="75" height="40" as="geometry" />
        </mxCell>
        <mxCell id="Q9C73i7ThPRaQxiTbjB--37" style="edgeStyle=orthogonalEdgeStyle;rounded=0;orthogonalLoop=1;jettySize=auto;html=1;entryX=0.5;entryY=0;entryDx=0;entryDy=0;" edge="1" parent="1" source="Q9C73i7ThPRaQxiTbjB--25" target="Q9C73i7ThPRaQxiTbjB--26">
          <mxGeometry relative="1" as="geometry" />
        </mxCell>
        <mxCell id="Q9C73i7ThPRaQxiTbjB--25" value="&lt;b style=&quot;color: rgb(0, 0, 0); font-size: 18px;&quot;&gt;input array of N numbers&lt;/b&gt;" style="shape=parallelogram;perimeter=parallelogramPerimeter;whiteSpace=wrap;html=1;fixedSize=1;labelBackgroundColor=none;fillColor=#BC6C25;strokeColor=#DDA15E;fontColor=#FEFAE0;" vertex="1" parent="1">
          <mxGeometry x="205" y="280" width="285" height="40" as="geometry" />
        </mxCell>
        <mxCell id="Q9C73i7ThPRaQxiTbjB--38" style="edgeStyle=orthogonalEdgeStyle;rounded=0;orthogonalLoop=1;jettySize=auto;html=1;entryX=0.5;entryY=0;entryDx=0;entryDy=0;" edge="1" parent="1" source="Q9C73i7ThPRaQxiTbjB--26" target="Q9C73i7ThPRaQxiTbjB--27">
          <mxGeometry relative="1" as="geometry" />
        </mxCell>
        <mxCell id="Q9C73i7ThPRaQxiTbjB--26" value="&lt;b style=&quot;color: rgb(0, 0, 0); font-size: 18px;&quot;&gt;sort the array&lt;/b&gt;" style="rounded=0;whiteSpace=wrap;html=1;strokeColor=#DDA15E;fontColor=#FEFAE0;fillColor=#BC6C25;labelBackgroundColor=none;" vertex="1" parent="1">
          <mxGeometry x="205" y="360" width="285" height="40" as="geometry" />
        </mxCell>
        <mxCell id="Q9C73i7ThPRaQxiTbjB--39" style="edgeStyle=orthogonalEdgeStyle;rounded=0;orthogonalLoop=1;jettySize=auto;html=1;entryX=0.5;entryY=0;entryDx=0;entryDy=0;" edge="1" parent="1" source="Q9C73i7ThPRaQxiTbjB--27" target="Q9C73i7ThPRaQxiTbjB--28">
          <mxGeometry relative="1" as="geometry" />
        </mxCell>
        <mxCell id="Q9C73i7ThPRaQxiTbjB--27" value="&lt;b style=&quot;color: rgb(0, 0, 0); font-size: 18px;&quot;&gt;mean&lt;/b&gt;" style="rounded=0;whiteSpace=wrap;html=1;strokeColor=#DDA15E;fontColor=#FEFAE0;fillColor=#BC6C25;labelBackgroundColor=none;" vertex="1" parent="1">
          <mxGeometry x="205" y="440" width="285" height="40" as="geometry" />
        </mxCell>
        <mxCell id="Q9C73i7ThPRaQxiTbjB--40" style="edgeStyle=orthogonalEdgeStyle;rounded=0;orthogonalLoop=1;jettySize=auto;html=1;entryX=0.5;entryY=0;entryDx=0;entryDy=0;" edge="1" parent="1" source="Q9C73i7ThPRaQxiTbjB--28" target="Q9C73i7ThPRaQxiTbjB--29">
          <mxGeometry relative="1" as="geometry" />
        </mxCell>
        <mxCell id="Q9C73i7ThPRaQxiTbjB--28" value="&lt;b style=&quot;color: rgb(0, 0, 0); font-size: 18px;&quot;&gt;mode = count the most occurence&lt;/b&gt;" style="rounded=0;whiteSpace=wrap;html=1;strokeColor=#DDA15E;fontColor=#FEFAE0;fillColor=#BC6C25;labelBackgroundColor=none;" vertex="1" parent="1">
          <mxGeometry x="205" y="520" width="285" height="40" as="geometry" />
        </mxCell>
        <mxCell id="Q9C73i7ThPRaQxiTbjB--41" style="edgeStyle=orthogonalEdgeStyle;rounded=0;orthogonalLoop=1;jettySize=auto;html=1;entryX=0.5;entryY=0;entryDx=0;entryDy=0;" edge="1" parent="1" source="Q9C73i7ThPRaQxiTbjB--29" target="Q9C73i7ThPRaQxiTbjB--30">
          <mxGeometry relative="1" as="geometry" />
        </mxCell>
        <mxCell id="Q9C73i7ThPRaQxiTbjB--29" value="&lt;b style=&quot;color: rgb(0, 0, 0); font-size: 18px;&quot;&gt;median = n / 2&lt;/b&gt;" style="rounded=0;whiteSpace=wrap;html=1;strokeColor=#DDA15E;fontColor=#FEFAE0;fillColor=#BC6C25;labelBackgroundColor=none;" vertex="1" parent="1">
          <mxGeometry x="205" y="595" width="285" height="40" as="geometry" />
        </mxCell>
        <mxCell id="Q9C73i7ThPRaQxiTbjB--44" style="edgeStyle=orthogonalEdgeStyle;rounded=0;orthogonalLoop=1;jettySize=auto;html=1;entryX=0.5;entryY=0;entryDx=0;entryDy=0;" edge="1" parent="1" source="Q9C73i7ThPRaQxiTbjB--30" target="Q9C73i7ThPRaQxiTbjB--31">
          <mxGeometry relative="1" as="geometry" />
        </mxCell>
        <mxCell id="Q9C73i7ThPRaQxiTbjB--30" value="&lt;div&gt;&lt;font color=&quot;#ededed&quot;&gt;&lt;span style=&quot;font-size: 18px;&quot;&gt;&lt;b&gt;sd = sd + pow((num[i] - mn), 2);&lt;/b&gt;&lt;/span&gt;&lt;/font&gt;&lt;/div&gt;&lt;div&gt;&lt;font color=&quot;#ededed&quot;&gt;&lt;span style=&quot;font-size: 18px;&quot;&gt;&lt;b&gt;sd = sd / n;&lt;/b&gt;&lt;/span&gt;&lt;/font&gt;&lt;/div&gt;&lt;div&gt;&lt;font color=&quot;#ededed&quot;&gt;&lt;span style=&quot;font-size: 18px;&quot;&gt;&lt;b&gt;sd = sqrt(sd);&lt;/b&gt;&lt;/span&gt;&lt;/font&gt;&lt;/div&gt;" style="rounded=0;whiteSpace=wrap;html=1;strokeColor=#DDA15E;fontColor=#FEFAE0;fillColor=#BC6C25;labelBackgroundColor=none;" vertex="1" parent="1">
          <mxGeometry x="205" y="678" width="285" height="82" as="geometry" />
        </mxCell>
        <mxCell id="Q9C73i7ThPRaQxiTbjB--43" style="edgeStyle=orthogonalEdgeStyle;rounded=0;orthogonalLoop=1;jettySize=auto;html=1;entryX=0.5;entryY=0;entryDx=0;entryDy=0;" edge="1" parent="1" source="Q9C73i7ThPRaQxiTbjB--31" target="Q9C73i7ThPRaQxiTbjB--32">
          <mxGeometry relative="1" as="geometry" />
        </mxCell>
        <mxCell id="Q9C73i7ThPRaQxiTbjB--31" value="&lt;b style=&quot;color: rgb(0, 0, 0); font-size: 18px;&quot;&gt;Print mean mode median sd&lt;/b&gt;" style="shape=parallelogram;perimeter=parallelogramPerimeter;whiteSpace=wrap;html=1;fixedSize=1;labelBackgroundColor=none;fillColor=#BC6C25;strokeColor=#DDA15E;fontColor=#FEFAE0;" vertex="1" parent="1">
          <mxGeometry x="205" y="800" width="285" height="40" as="geometry" />
        </mxCell>
        <mxCell id="Q9C73i7ThPRaQxiTbjB--32" value="&lt;font style=&quot;font-size: 18px; color: light-dark(rgb(26, 64, 255), rgb(0, 0, 0));&quot;&gt;&lt;b&gt;Stop&lt;/b&gt;&lt;/font&gt;" style="rounded=1;whiteSpace=wrap;html=1;labelBackgroundColor=none;fillColor=#BC6C25;strokeColor=#DDA15E;fontColor=#FEFAE0;" vertex="1" parent="1">
          <mxGeometry x="310" y="880" width="75" height="40" as="geometry" />
        </mxCell>
      </root>
    </mxGraphModel>
  </diagram>
</mxfile>
